# xmcd
#
# Track frame offsets: 
#        150
#        13568
#        26849
#        38255
#        48414
#        58830
#        68691
#        78698
#        89080
#        101032
#        111519
#        121199
#        135817
#        146463
#        159585
#        173886
#        187129
#        200670
#        212104
#        224490
#        238461
#        252139
#        264819
#        275499
#        289767
#        302554
#        314455
#        324324
#        336411
#
# Disc length: 4651 seconds
#
# Revision: 0
# Processed by: cddbd v1.5.2PL0 Copyright (c) Steve Scherf et al.
# Submitted via: ExactAudioCopyFreeDBPlugin 1.0
#
DISCID=b812291d
DTITLE=Various Artist - The Derby Records Story [disc 2]
DYEAR=2008
DGENRE=R&B
TTITLE0=Honey Brown - Rockin' and Jumpin'
TTITLE1=Eunice Davis - Evening Train
TTITLE2=Honey Brown - Lonesome and Mistreated
TTITLE3=Walter "Sandman" Howard - Willow Tree Blues
TTITLE4=Walter "Sandman" Howard - Cuttin' Out
TTITLE5=Willie Hunter - I'm in Love with You Baby
TTITLE6=Bob "H-Bomb" Ferguson - Hard Lovin' Woman
TTITLE7=Willie Hunter - Willie's Blues
TTITLE8=Bobby Harris with Jack Dupree Orchestra - Up and Down the Hill
TTITLE9=Brownie McGhee - All Night Long
TTITLE10=The Four Fellows - I Tried
TTITLE11=Brownie McGhee and The Majors - Sleepless Nights
TTITLE12=Bobby Harris with Jack Dupree Orchestra - Drinkin' Little Wom
TTITLE12=an
TTITLE13=Freddie Mitchell Orchestra - Hot Ice
TTITLE14=The Majors - Laughing on the Outside
TTITLE15=Bobby Harris with Jack Dupree Orchestra - Baby, You Say You L
TTITLE15=ove Me
TTITLE16=Champion Jack Dupree - The Woman I Love
TTITLE17=The Majors - Come On Up to My Room
TTITLE18=Brownie McGhee - I'm Gonna Move Across the River
TTITLE19=Freddie Mitchell Orchestra - Boogie Blues
TTITLE20=Sunny Gale with Eddie Wilcox Orchestra - The Wheel of Fortune
TTITLE21=Sammy Cotton - Here Comes the Rain
TTITLE22=Sammy Cotton - We're Gonna Ball This Morning
TTITLE23=Bette McLaurin and The Striders - I May Hate Myself in the Morn
TTITLE23=ing
TTITLE24=Eddie Wilcox Orchestra - Shuffle Express
TTITLE25=Sammy Cotton - Back Bitin'
TTITLE26=The Imperials - Hard Workin' Woman
TTITLE27=Jaye P. Morgan - Baby, Don't Do It!
TTITLE28=Freddie Mitchell Orchestra - Moondog's Boogie
EXTD=
EXTT0=
EXTT1=
EXTT2=
EXTT3=
EXTT4=
EXTT5=
EXTT6=
EXTT7=
EXTT8=
EXTT9=
EXTT10=
EXTT11=
EXTT12=
EXTT13=
EXTT14=
EXTT15=
EXTT16=
EXTT17=
EXTT18=
EXTT19=
EXTT20=
EXTT21=
EXTT22=
EXTT23=
EXTT24=
EXTT25=
EXTT26=
EXTT27=
EXTT28=
PLAYORDER=
